   <svg width="30" height="30" viewBox="0 0 30 30" fill="none" xmlns="http://www.w3.org/2000/svg"><g clip-path="url(#clip0_119:215)"><path d="M5.46655 20.207L6.45924 20.2545L12.4239 20.5398C12.424 20.5398 12.424 20.5398 12.4241 20.5398M5.46655 20.207L12.4241 20.5398M5.46655 20.207L6.02009 21.0324C7.00752 22.5048 8.34255 23.7112 9.90713 24.5449C11.4715 25.3786 13.2173 25.8139 14.9899 25.8125M5.46655 20.207L12.4241 20.5398M12.4241 20.5398C12.4515 20.5411 12.4789 20.5368 12.5046 20.5272C12.5304 20.5176 12.554 20.5028 12.5739 20.4839C12.5938 20.4649 12.6096 20.442 12.6204 20.4167C12.6312 20.3914 12.6368 20.3642 12.6367 20.3367L12.6367 20.3361L12.6367 17.5588C12.6367 17.5049 12.6153 17.4533 12.5772 17.4152C12.5391 17.3771 12.4875 17.3557 12.4336 17.3557H0.703125C0.649252 17.3557 0.597587 17.3771 0.559494 17.4152C0.521401 17.4533 0.5 17.5049 0.5 17.5588V29.2969C0.5 29.3507 0.521401 29.4024 0.559494 29.4405C0.597587 29.4786 0.649252 29.5 0.703125 29.5H3.47754H3.47816C3.50572 29.5 3.53299 29.4945 3.55832 29.4836C3.58365 29.4728 3.60651 29.4569 3.62551 29.437C3.64451 29.417 3.65925 29.3934 3.66884 29.3676C3.67842 29.3418 3.68266 29.3143 3.68129 29.2868C3.68129 29.2868 3.68129 29.2868 3.68129 29.2867L3.43813 24.4487L3.36411 22.9761L4.31861 24.1C5.63269 25.6473 7.26793 26.8899 9.1107 27.7415C10.9535 28.5931 12.9595 29.0332 14.9896 29.0312H14.99C21.8409 29.0312 27.5454 24.1146 28.769 17.6144C28.7743 17.5853 28.7731 17.5554 28.7656 17.5268C28.7581 17.4979 28.7443 17.4711 28.7253 17.4482C28.7062 17.4253 28.6823 17.4069 28.6553 17.3942C28.6284 17.3816 28.5989 17.375 28.5691 17.375H25.6957C25.6499 17.375 25.6055 17.3906 25.5696 17.419C25.5338 17.4475 25.5086 17.4872 25.4981 17.5317L25.4975 17.5345C24.9301 19.8938 23.585 21.9935 21.6788 23.4952C19.7727 24.9968 17.4165 25.8131 14.9899 25.8125M14.9899 25.8125L14.99 25.3125M14.9899 25.8125C14.9901 25.8125 14.9903 25.8125 14.9905 25.8125L14.99 25.3125M14.99 25.3125C13.2993 25.3139 11.6343 24.8988 10.1423 24.1037C8.83813 23.4087 7.70124 22.4423 6.80675 21.2722M14.99 25.3125C17.3043 25.3131 19.5515 24.5346 21.3694 23.1024C23.1873 21.6702 24.4702 19.6677 25.0113 17.4176C25.0475 17.2633 25.1347 17.1258 25.2588 17.0273C25.3829 16.9289 25.5367 16.8752 25.6951 16.875H28.5691C28.6723 16.875 28.7742 16.8977 28.8676 16.9415C28.961 16.9853 29.0436 17.0491 29.1096 17.1284C29.1756 17.2077 29.2233 17.3005 29.2494 17.4003C29.2755 17.5001 29.2793 17.6044 29.2605 17.7059L6.80675 21.2722M6.80675 21.2722L6.41146 21.2533L6.43535 20.7539L6.85062 20.4754C6.92062 20.5798 6.99254 20.6827 7.06634 20.7841L6.80675 21.2722ZM25.6723 5.90964L26.6242 7.03255L26.5531 5.56219L26.3188 0.712773C26.3175 0.68533 26.3217 0.657903 26.3313 0.632154C26.3409 0.606408 26.3557 0.582877 26.3746 0.562986C26.3936 0.543093 26.4164 0.527256 26.4416 0.516431C26.4669 0.505605 26.4941 0.500015 26.5216 0.5L29.2969 0.5C29.3507 0.5 29.4024 0.521401 29.4405 0.559494C29.4786 0.597587 29.5 0.649252 29.5 0.703125V12.4424C29.5 12.4963 29.4786 12.5479 29.4405 12.586C29.4024 12.6241 29.3507 12.6455 29.2969 12.6455H17.5652C17.5114 12.6455 17.4597 12.6241 17.4216 12.586C17.3835 12.5479 17.3621 12.4963 17.3621 12.4424V9.66445L17.3621 9.66389C17.3621 9.63638 17.3676 9.60916 17.3784 9.58386C17.3892 9.55857 17.4051 9.53573 17.425 9.51674C17.4449 9.49774 17.4684 9.48299 17.4942 9.47337C17.52 9.46375 17.5474 9.45946 17.5749 9.46076L23.5196 9.74552L24.5138 9.79314L23.9585 8.96712C22.788 7.22607 21.136 5.86336 19.2041 5.04525C17.2723 4.22714 15.144 3.98901 13.0791 4.35991C11.0142 4.73081 9.10193 5.69471 7.57555 7.13399C6.04916 8.57328 4.97469 10.4257 4.48325 12.4653L4.48324 12.4653L4.48254 12.4683C4.47209 12.5128 4.4469 12.5525 4.41104 12.581C4.37519 12.6094 4.33078 12.625 4.28501 12.625H1.41154C1.38174 12.625 1.3523 12.6184 1.32532 12.6058C1.29834 12.5931 1.27447 12.5747 1.25541 12.5518C1.23635 12.5289 1.22256 12.5021 1.21502 12.4732C1.20753 12.4446 1.2064 12.4147 1.21169 12.3856C2.4353 5.88541 8.13982 0.96875 14.99 0.96875L14.9906 0.96875C17.0232 0.966411 19.0319 1.40726 20.8766 2.26058C22.7214 3.1139 24.358 4.35917 25.6723 5.90964Z" fill="black" stroke="#FF9A19"/></g><defs><clipPath id="clip0_119:215"><rect width="30" height="30" fill="white"/></clipPath></defs></svg>